# Blender v2.93.6 OBJ File: 'cubic tritex.blend'
# www.blender.org
mtllib cubic tritex.mtl
o Cube
v 0.911378 -0.411571 -1.000000
v -1.322948 -0.499807 0.000000
v 0.911378 -0.411571 1.000000
v -0.499807 1.322948 0.000000
vt 0.375000 0.750000
vt 0.625000 1.000000
vt 0.375000 1.000000
vt 0.375000 0.000000
vt 0.625000 0.000000
vt 0.625000 0.250000
vt 0.375000 0.500000
vt 0.625000 0.500000
vt 0.625000 0.750000
vt 0.375000 0.250000
vn -0.4076 0.1841 0.8944
vn 0.7757 0.6311 0.0000
vn 0.0395 -0.9992 0.0000
vn -0.4076 0.1841 -0.8944
usemtl Material
s off
f 2/1/1 3/2/1 4/3/1
f 4/4/2 3/5/2 1/6/2
f 2/7/3 1/8/3 3/9/3
f 4/10/4 1/8/4 2/7/4
